<?xml version="1.0" standalone="no"?><!DOCTYPE svg PUBLIC "-//W3C//DTD SVG 1.1//EN" "http://www.w3.org/Graphics/SVG/1.1/DTD/svg11.dtd"><svg t="1526386241782" class="icon" style="" viewBox="0 0 1024 1024" version="1.1" xmlns="http://www.w3.org/2000/svg" p-id="9511" xmlns:xlink="http://www.w3.org/1999/xlink" width="200" height="200"><defs><style type="text/css"></style></defs><path d="M262.713 637.731h254.78c12.956 36.339 47.641 62.354 88.272 62.354H917.25c51.636 0 93.627-41.991 93.627-93.634V544.39c0-51.641-41.991-93.633-93.627-93.633H605.766c-51.641 0-93.632 41.992-93.632 93.633v31.077H262.713v-62.354h122.761c69.858 0 126.66-56.799 126.66-126.657V140.93c0-69.854-56.802-126.658-126.66-126.658H139.947C70.094 14.271 13.29 71.075 13.29 140.93v245.527c0 69.858 56.804 126.657 126.657 126.657h60.41v406.093c0 17.243 13.931 31.177 31.178 31.177 2.337 0 4.576-0.294 6.723-0.778h279.235c12.956 36.34 47.641 62.354 88.272 62.354H917.25c51.636 0 93.627-41.989 93.627-93.634v-62.061c0-51.638-41.991-93.628-93.627-93.628H605.766c-51.641 0-93.632 41.99-93.632 93.628v31.081H262.713V637.731z m311.775-93.44c0-17.242 14.03-31.272 31.277-31.272H917.25c17.24 0 31.272 14.03 31.272 31.272v62.065c0 17.246-14.032 31.272-31.272 31.272H605.766c-17.247 0-31.277-14.026-31.277-31.272v-62.065zM75.646 386.356V140.835c0-35.465 28.837-64.308 64.302-64.308h245.526c35.466 0 64.302 28.843 64.302 64.308v245.521c0 35.464-28.836 64.307-64.302 64.307H139.947c-35.465 0-64.301-28.843-64.301-64.307zM574.488 856.07c0-17.247 14.03-31.277 31.277-31.277H917.25c17.24 0 31.272 14.03 31.272 31.277v62.063c0 17.247-14.032 31.279-31.272 31.279H605.766c-17.247 0-31.277-14.032-31.277-31.279V856.07z m0 0" fill="#f4ea2a" p-id="9512"></path><path d="M637.555 370.053V73.943h102.272c105.139 0 157.708 48.11 157.708 144.328 0 45.753-14.72 82.486-44.158 110.205-29.438 27.718-67.418 41.578-113.933 41.578H637.555z m63.084-244.496v192.882h34.409c29.946 0 53.459-8.919 70.539-26.763 17.075-17.841 25.615-41.99 25.615-72.451 0-29.438-8.922-52.408-26.763-68.914-17.844-16.503-41.037-24.755-69.583-24.755h-34.217z" fill="#f4ea2a" p-id="9513"></path></svg>