<?xml version="1.0" standalone="no"?><!DOCTYPE svg PUBLIC "-//W3C//DTD SVG 1.1//EN" "http://www.w3.org/Graphics/SVG/1.1/DTD/svg11.dtd"><svg t="1526279616636" class="icon" style="" viewBox="0 0 1024 1024" version="1.1" xmlns="http://www.w3.org/2000/svg" p-id="2148" xmlns:xlink="http://www.w3.org/1999/xlink" width="200" height="200"><defs><style type="text/css"></style></defs><path d="M312 316.8h211.2V352H312zM312 636.8h416V672h-416zM312 531.2h416v35.2h-416zM312 424h416v35.2h-416z" fill="#1296db" p-id="2149"></path><path d="M875.2 201.6l-6.4-6.4-140.8-142.4L710.4 32H147.2v864l99.2 88c6.4 4.8 14.4 8 22.4 8h1.6c9.6 0 17.6-4.8 22.4-11.2l104-118.4 102.4 116.8c6.4 6.4 16 11.2 25.6 11.2 9.6 0 19.2-4.8 25.6-11.2l100.8-116.8 99.2 116.8c6.4 8 16 11.2 25.6 11.2 9.6 0 19.2-4.8 24-11.2l75.2-84.8V203.2h1.6l-1.6-1.6z m-35.2 680l-65.6 73.6-124.8-147.2-126.4 147.2-128-144-129.6 145.6-84.8-76.8V67.2h528v136h131.2v678.4z" fill="#1296db" p-id="2150"></path></svg>