<?xml version="1.0" standalone="no"?><!DOCTYPE svg PUBLIC "-//W3C//DTD SVG 1.1//EN" "http://www.w3.org/Graphics/SVG/1.1/DTD/svg11.dtd"><svg t="1517045373371" class="icon" style="" viewBox="0 0 1024 1024" version="1.1" xmlns="http://www.w3.org/2000/svg" p-id="2030" xmlns:xlink="http://www.w3.org/1999/xlink" width="200" height="200"><defs><style type="text/css"></style></defs><path d="M908.12416 356.38272l-1.55648 0 0-71.77216c0-24.77056-20.15232-44.92288-44.93312-44.92288L469.25824 239.68768l-29.11232-76.41088c-3.04128-7.936-10.63936-13.18912-19.13856-13.18912L261.31456 150.08768c-5.45792 0-10.68032 2.17088-14.53056 6.0416-3.84 3.87072-5.9904 9.10336-5.94944 14.56128l-0.18432 107.39712 40.96 0 0.03072-87.04 125.24544 0 29.12256 76.41088c3.0208 7.936 10.63936 13.18912 19.13856 13.18912l406.4768 0c2.19136 0 3.97312 1.78176 3.97312 3.96288l0 71.77216L750.97088 356.38272c-2.51904 0-4.9152 0.41984-7.24992 1.024l3.92192 10.2912-1.20832 0c24.7808 0 44.93312 20.15232 44.93312 44.92288l0 71.77216 1.55648 0c16.10752 0 29.16352 13.04576 29.16352 29.16352l0 201.64608 39.54688 0c0.44032 0 0.86016-0.12288 1.29024-0.13312l45.19936 0c16.10752 0 29.16352-13.04576 29.16352-29.16352L937.28768 385.536C937.27744 369.42848 924.23168 356.38272 908.12416 356.38272z" p-id="2031"></path><path d="M754.52416 515.10272l-1.55648 0 0-71.77216c0-24.77056-20.15232-44.92288-44.93312-44.92288L315.65824 398.40768l-29.11232-76.41088c-3.04128-7.936-10.63936-13.18912-19.13856-13.18912l-159.4368 0c-5.45792 0-10.68032 2.17088-14.53056 6.0416-3.84 3.87072-5.9904 9.10336-5.94944 14.56128L87.3472 443.33056l0 385.65888c0 24.77056 20.16256 44.92288 44.92288 44.92288l575.76448 0c0.44032 0 0.86016-0.12288 1.29024-0.13312l45.19936 0c16.10752 0 29.16352-13.04576 29.16352-29.16352L783.68768 544.256C783.67744 528.14848 770.63168 515.10272 754.52416 515.10272zM711.99744 515.10272l-508.2112 0c-16.10752 0-29.16352 13.04576-29.16352 29.16352l0 288.68608-42.36288 0c-2.18112 0-3.96288-1.78176-3.96288-3.96288L128.29696 443.20768l-0.26624-93.44 125.24544 0 29.12256 76.41088c3.0208 7.936 10.63936 13.18912 19.13856 13.18912l406.4768 0c2.19136 0 3.97312 1.78176 3.97312 3.96288L711.9872 515.10272z" p-id="2032"></path></svg>