<?xml version="1.0" standalone="no"?><!DOCTYPE svg PUBLIC "-//W3C//DTD SVG 1.1//EN" "http://www.w3.org/Graphics/SVG/1.1/DTD/svg11.dtd"><svg t="1526386045105" class="icon" style="" viewBox="0 0 1024 1024" version="1.1" xmlns="http://www.w3.org/2000/svg" p-id="5797" xmlns:xlink="http://www.w3.org/1999/xlink" width="200" height="200"><defs><style type="text/css"></style></defs><path d="M25.816 794.344a25.816 25.816 0 0 1-25.792-25.8v-522.24a25.816 25.816 0 0 1 25.792-25.784h972.368a25.84 25.84 0 0 1 25.8 25.784V768.56a25.832 25.832 0 0 1-25.8 25.792L25.816 794.344z m25.776-51.56h920.8V272.096H51.592v470.688z" fill="#f4ea2a" p-id="5798"></path><path d="M826.648 982.072a25.808 25.808 0 0 1-25.792-25.792V761.944a25.816 25.816 0 0 1 25.792-25.792h97.136a25.816 25.816 0 0 1 25.784 25.792v194.336a25.544 25.544 0 0 1-7.536 18.232 25.648 25.648 0 0 1-18.224 7.544l-97.16 0.016z m25.776-51.568h45.568V787.736h-45.568v142.768zM464.16 982.072a25.808 25.808 0 0 1-25.784-25.792V761.944a25.824 25.824 0 0 1 25.784-25.792h97.176a25.824 25.824 0 0 1 25.792 25.792v194.336a25.816 25.816 0 0 1-25.792 25.792H464.16z m25.8-51.568h45.6V787.736h-45.6v142.768zM101.752 982.072a25.808 25.808 0 0 1-25.784-25.792V761.944a25.824 25.824 0 0 1 25.784-25.792h97.2a25.808 25.808 0 0 1 25.784 25.792v194.336a25.824 25.824 0 0 1-25.784 25.792h-97.2z m25.784-51.568h45.632V787.736h-45.632v142.768zM826.648 287.824a25.816 25.816 0 0 1-25.792-25.784V67.712a25.808 25.808 0 0 1 25.792-25.784h97.136a25.824 25.824 0 0 1 25.784 25.784v194.336a25.56 25.56 0 0 1-7.536 18.232 25.616 25.616 0 0 1-18.224 7.544h-97.16z m25.776-51.568h45.568V93.504h-45.568v142.752zM464.16 287.824a25.816 25.816 0 0 1-25.784-25.784V67.712a25.816 25.816 0 0 1 25.784-25.784h97.176a25.824 25.824 0 0 1 25.792 25.784v194.336a25.808 25.808 0 0 1-25.792 25.776H464.16z m25.8-51.568h45.6V93.504h-45.6v142.752zM101.752 287.824a25.816 25.816 0 0 1-25.784-25.784V67.712a25.816 25.816 0 0 1 25.784-25.784h97.2a25.816 25.816 0 0 1 25.784 25.784v194.336a25.808 25.808 0 0 1-25.784 25.776h-97.2z m25.784-51.568h45.632V93.504h-45.632v142.752z" fill="#f4ea2a" p-id="5799"></path></svg>