<?xml version="1.0" standalone="no"?><!DOCTYPE svg PUBLIC "-//W3C//DTD SVG 1.1//EN" "http://www.w3.org/Graphics/SVG/1.1/DTD/svg11.dtd"><svg t="1507276623188" class="icon" style="" viewBox="0 0 1024 1024" version="1.1" xmlns="http://www.w3.org/2000/svg" p-id="12944" xmlns:xlink="http://www.w3.org/1999/xlink" width="200" height="200"><defs><style type="text/css"></style></defs><path d="M955.608 661.281l-100.853-331.53c-18.977-61.867-75.596-106.072-142.54-106.072-0.233 0-0.47 0-0.704 0.001h-399.059c-0.2-0.001-0.437-0.001-0.674-0.001-66.936 0-123.551 44.195-142.255 104.995l-101.132 332.628c-3.398 10.824-5.355 23.271-5.355 36.175 0 68.904 55.811 124.772 124.695 124.864 49.655-0.129 92.498-29.124 112.655-71.083l60.303-128.463h302.624l60.017 127.791c20.52 42.692 63.389 71.659 113.032 71.753 68.807-0.1 124.61-55.966 124.61-124.864 0-12.913-1.959-25.367-5.599-37.082zM836.282 772.459c-29.795-0.086-55.507-17.483-67.607-42.662l-66.942-142.558c-4.086-8.535-12.653-14.325-22.574-14.325-0.001 0-0.001 0-0.002 0h-334.308c-9.664 0-18.474 5.58-22.578 14.325l-66.751 142.159c-12.315 25.618-38.038 43.001-67.827 43.060-41.293-0.042-74.792-33.567-74.792-74.919 0-7.748 1.177-15.223 3.36-22.252l100.711-331.042c12.662-41.229 50.4-70.686 95.017-70.686 0.164 0 0.33 0 0.493 0.001h399.067c0.143-0.001 0.314-0.001 0.482-0.001 44.627 0 82.371 29.467 94.839 70.005l101.018 332.255c2.043 6.5 3.219 13.974 3.219 21.723 0 41.343-33.489 74.863-74.817 74.919z" fill="#000000" p-id="12945"></path><path d="M387.286 398.297h-24.952v-24.952c0-13.774-11.166-24.94-24.94-24.94s-24.94 11.166-24.94 24.94v24.952h-24.952c-13.774 0-24.94 11.166-24.94 24.94s11.166 24.94 24.94 24.94h24.952v24.952c0 13.774 11.166 24.94 24.94 24.94s24.94-11.166 24.94-24.94v-24.952h24.952c13.774 0 24.94-11.166 24.94-24.94s-11.166-24.94-24.94-24.94zM747.659 375.977c-3.25-1.661-7.089-2.635-11.156-2.635-9.71 0-18.123 5.55-22.241 13.655l-25.017 50.023c-1.662 3.252-2.636 7.092-2.636 11.162 0 13.778 11.168 24.947 24.947 24.947 9.709 0 18.122-5.547 22.246-13.643l24.995-50.045c1.664-3.253 2.639-7.096 2.639-11.164 0-9.704-5.544-18.113-13.638-22.232zM647.876 375.977c-3.25-1.661-7.089-2.635-11.156-2.635-9.71 0-18.123 5.55-22.241 13.655l-25.017 50.023c-1.662 3.252-2.636 7.092-2.636 11.162 0 13.778 11.168 24.947 24.947 24.947 9.709 0 18.122-5.547 22.246-13.643l25.017-50.045c1.661-3.25 2.635-7.089 2.635-11.156 0-9.71-5.55-18.123-13.655-22.241z" fill="#000000" p-id="12946"></path></svg>