<?xml version="1.0" standalone="no"?><!DOCTYPE svg PUBLIC "-//W3C//DTD SVG 1.1//EN" "http://www.w3.org/Graphics/SVG/1.1/DTD/svg11.dtd"><svg t="1516620668169" class="icon" style="" viewBox="0 0 1024 1024" version="1.1" xmlns="http://www.w3.org/2000/svg" p-id="16543" xmlns:xlink="http://www.w3.org/1999/xlink" width="200" height="200"><defs><style type="text/css"></style></defs><path d="M462.500571 718.500571a18.267429 18.267429 0 1 0 25.856 25.856l219.410286-219.410285a18.304 18.304 0 0 0 0-25.910857L488.356571 279.643429a18.267429 18.267429 0 1 0-25.856 25.856L650.715429 493.714286H91.428571a18.285714 18.285714 0 1 0 0 36.571428h559.286858L462.500571 718.500571z" fill="" p-id="16544"></path><path d="M932.571429 0H256a18.285714 18.285714 0 0 0-18.285714 18.285714v384a18.285714 18.285714 0 1 0 36.571428 0V36.571429h640v950.857142H274.285714V621.714286a18.285714 18.285714 0 1 0-36.571428 0v384a18.285714 18.285714 0 0 0 18.285714 18.285714h676.571429a18.285714 18.285714 0 0 0 18.285714-18.285714V18.285714a18.285714 18.285714 0 0 0-18.285714-18.285714z" fill="" p-id="16545"></path></svg>