<?xml version="1.0" standalone="no"?><!DOCTYPE svg PUBLIC "-//W3C//DTD SVG 1.1//EN" "http://www.w3.org/Graphics/SVG/1.1/DTD/svg11.dtd"><svg t="1526386095140" class="icon" style="" viewBox="0 0 1024 1024" version="1.1" xmlns="http://www.w3.org/2000/svg" p-id="7645" xmlns:xlink="http://www.w3.org/1999/xlink" width="200" height="200"><defs><style type="text/css"></style></defs><path d="M337.37482926 600.04476639h209.95290444l-111.65760393-233.38269677-98.29530051 233.38269677zM0.02242921 0.02242921v1024.13818684h1024.13818684V0.02242921H0.02242921z m680.92833872 784.34890629c-16.65711798 7.3218101-46.49349409-0.91522626-53.8153042-17.57234425l-55.82880197-116.59982575H316.14158L265.62109034 770.09380581c-4.9422218 12.81316766-27.6398331 19.40279674-40.45300077 14.46057494-12.63012242-4.9422218-24.71110907-19.95193252-19.585842-32.58205494l197.50582729-468.22975548c0-0.36609051 0.18304527-0.54913574 0.18304525-0.91522628l12.81316767-29.47028563c0-0.18304527 0.18304527-0.18304527 0.36609049-0.36609049h0.18304526c3.84395029-8.23703635 12.08098666-13.91143919 21.78238501-13.91143918 9.70139837 0 17.93843471 5.67440283 21.78238503 13.91143918h0.18304526l26.54156161 50.15439914 215.99339775 437.66119834c6.95571961 16.65711798-5.30831231 36.24295997-21.96543026 43.56477009zM794.80491488 385.69877589h-74.31637247v74.31637246c0 13.72839391-11.16576039 24.71110907-24.71110906 24.71110905-13.72839391 0-24.71110907-11.16576039-24.71110906-24.71110905v-17.93843475h0.73218102V385.69877589h-75.04855346c-13.72839391 0-24.71110907-11.16576039-24.71110907-24.71110908 0-13.72839391 11.16576039-24.71110907 24.71110907-24.71110906h17.93843471v0.732181h57.11011875v-80.53991103c2.56263353-10.98271516 12.26403191-19.21975149 24.16197329-19.21975149 13.72839391 0 24.71110907 11.16576039 24.71110908 24.71110907v75.04855345h79.80773003c10.98271516 2.56263353 19.21975149 12.26403191 19.21975148 24.16197334-0.18304527 13.54534867-11.16576039 24.52806381-24.89415431 24.5280638z" p-id="7646" fill="#f4ea2a"></path></svg>