<?xml version="1.0" standalone="no"?><!DOCTYPE svg PUBLIC "-//W3C//DTD SVG 1.1//EN" "http://www.w3.org/Graphics/SVG/1.1/DTD/svg11.dtd"><svg t="1526281620012" class="icon" style="" viewBox="0 0 1024 1024" version="1.1" xmlns="http://www.w3.org/2000/svg" p-id="6616" xmlns:xlink="http://www.w3.org/1999/xlink" width="200" height="200"><defs><style type="text/css"></style></defs><path d="M880.014222 470.641778c-17.408 0-26.680889 14.108444-26.680889 31.459555V824.888889c0 41.358222-28.444444 85.333333-84.309333 85.333333H206.791111C142.222222 910.222222 113.777778 881.777778 113.777778 830.122667V259.811556C113.777778 218.396444 165.432889 170.666667 206.791111 170.666667h321.422222c17.351111 0 31.402667-9.272889 31.402667-26.680889 0-17.351111-14.051556-30.208-31.459556-30.208H206.791111C124.188444 113.777778 56.888889 176.924444 56.888889 259.811556v570.311111C56.888889 912.952889 124.131556 967.111111 206.791111 967.111111h562.232889C851.683556 967.111111 910.222222 907.719111 910.222222 824.888889V502.101333c0-17.351111-12.856889-31.459556-30.208-31.459555z" fill="#1296db" p-id="6617"></path><path d="M436.451556 708.266667l482.702222-482.759111a56.888889 56.888889 0 0 0 0-80.440889l-40.220445-40.220445a56.888889 56.888889 0 0 0-80.440889 0L315.733333 587.548444l-40.220444-40.220444 482.702222-482.702222a113.777778 113.777778 0 0 1 160.938667 0l40.220444 40.220444a113.777778 113.777778 0 0 1 0 160.938667l-482.702222 482.702222-40.220444-40.220444z" fill="#1296db" p-id="6618"></path><path d="M717.994667 104.846222l160.938666 160.938667-40.220444 40.220444-160.938667-160.938666zM275.797333 546.133333l201.159111 201.159111-261.461333 60.302223L275.797333 546.133333z m22.016 95.516445l-28.444444 113.777778 113.777778-28.444445-85.333334-85.333333z" fill="#1296db" p-id="6619"></path></svg>