<?xml version="1.0" standalone="no"?><!DOCTYPE svg PUBLIC "-//W3C//DTD SVG 1.1//EN" "http://www.w3.org/Graphics/SVG/1.1/DTD/svg11.dtd"><svg t="1526385999262" class="icon" style="" viewBox="0 0 1024 1024" version="1.1" xmlns="http://www.w3.org/2000/svg" p-id="5388" xmlns:xlink="http://www.w3.org/1999/xlink" width="200" height="200"><defs><style type="text/css"></style></defs><path d="M946.678984 490.671229C937.76701 264.21766 755.807818 82.258469 529.35425 73.345472l0-0.376577-34.808784 0 0 0.376577C268.090874 82.258469 86.132706 264.21766 77.219709 490.671229l-0.376577 0 0 34.808784 0.376577 0c8.911974 226.432079 190.83535 408.376944 417.259242 417.322687l0 0.379647 34.941813 0 0-0.379647c226.422869-8.945743 408.347269-190.891631 417.259242-417.322687l0.376577 0 0-34.808784L946.678984 490.671229zM911.847687 525.480013c-8.867972 207.205179-175.230953 373.590674-382.427946 382.492414L529.419741 740.132814l-34.941813 0L494.477928 907.972427c-207.196992-8.901741-373.559974-175.286212-382.427946-382.492414l141.928476 0 0-34.808784L112.051005 490.671229C120.92 283.443537 287.317775 117.045763 494.545466 108.176768l0 141.928476 34.808784 0L529.35425 108.176768c207.227692 8.868995 373.625466 175.266769 382.494461 382.494461L769.919211 490.671229l0 34.808784L911.847687 525.480013z" p-id="5389" fill="#f4ea2a"></path><path d="M511.949858 508.075621m-38.10383 0a37.236 37.236 0 1 0 76.207659 0 37.236 37.236 0 1 0-76.207659 0Z" p-id="5390" fill="#f4ea2a"></path></svg>