<?xml version="1.0" standalone="no"?><!DOCTYPE svg PUBLIC "-//W3C//DTD SVG 1.1//EN" "http://www.w3.org/Graphics/SVG/1.1/DTD/svg11.dtd"><svg t="1526280578670" class="icon" style="" viewBox="0 0 1024 1024" version="1.1" xmlns="http://www.w3.org/2000/svg" p-id="5883" xmlns:xlink="http://www.w3.org/1999/xlink" width="200" height="200"><defs><style type="text/css"></style></defs><path d="M296.8 157.3v723.5H106.4V157.3h190.4m38.1-38.1H68.3v799.7h266.6V119.2z" fill="#1296db" p-id="5884"></path><path d="M135 220.1h133.3v26.7H135zM135 296.3h133.3V323H135zM201.6 717.1c16.8 0 30.5 13.7 30.5 30.5S218.4 778 201.6 778s-30.5-13.7-30.5-30.5 13.7-30.4 30.5-30.4m0-26.7c-31.5 0-57.1 25.6-57.1 57.1s25.6 57.1 57.1 57.1 57.1-25.6 57.1-57.1-25.6-57.1-57.1-57.1z" fill="#1296db" p-id="5885"></path><path d="M525.3 157.3v723.5H334.9V157.3h190.4m38-38.1H296.8v799.7h266.6V119.2h-0.1z" fill="#1296db" p-id="5886"></path><path d="M363.4 220.1h133.3v26.7H363.4zM363.4 296.3h133.3V323H363.4zM430.1 717.1c16.8 0 30.5 13.7 30.5 30.5S446.9 778 430.1 778s-30.5-13.7-30.5-30.5 13.7-30.4 30.5-30.4m0-26.7c-31.5 0-57.1 25.6-57.1 57.1s25.6 57.1 57.1 57.1 57.1-25.6 57.1-57.1-25.6-57.1-57.1-57.1z" fill="#1296db" p-id="5887"></path><path d="M788.6 126.3L943 833.1l-186 40.6-154.4-706.8 186-40.6m29.1-45.4l-260.4 56.9L728 919l260.4-56.9L817.7 80.9z" fill="#1296db" p-id="5888"></path><path d="M643.92 222.246l130.235-28.447 5.698 26.086-130.235 28.446zM660.12 296.66l130.234-28.446 5.698 26.086-130.234 28.446zM815 693.4c16.4-3.6 32.7 6.8 36.3 23.3 3.6 16.4-6.8 32.7-23.3 36.3-16.4 3.6-32.7-6.8-36.3-23.3-3.5-16.4 6.9-32.7 23.3-36.3m-5.7-26c-30.8 6.7-50.3 37.2-43.6 68 6.7 30.8 37.2 50.3 68 43.6 30.8-6.7 50.3-37.2 43.6-68s-37.1-50.3-68-43.6z" fill="#1296db" p-id="5889"></path></svg>