<?xml version="1.0" standalone="no"?><!DOCTYPE svg PUBLIC "-//W3C//DTD SVG 1.1//EN" "http://www.w3.org/Graphics/SVG/1.1/DTD/svg11.dtd"><svg t="1526276209712" class="icon" style="" viewBox="0 0 1024 1024" version="1.1" xmlns="http://www.w3.org/2000/svg" p-id="7736" xmlns:xlink="http://www.w3.org/1999/xlink" width="200" height="200"><defs><style type="text/css"></style></defs><path d="M525.226667 198.826667A289.28 289.28 0 0 0 309.76 682.666667l-88.746667 87.893333a21.333333 21.333333 0 1 0 30.293334 30.293333L341.333333 711.68a289.706667 289.706667 0 1 0 185.173334-512z m0 537.173333a247.466667 247.466667 0 1 1 247.04-247.04 247.466667 247.466667 0 0 1-247.04 247.04z" p-id="7737"></path><path d="M625.92 388.266667a21.333333 21.333333 0 0 0-30.293333 0l-70.4 70.4-69.973334-70.4a21.333333 21.333333 0 0 0-30.293333 30.293333l70.4 70.4L426.666667 558.933333a21.333333 21.333333 0 1 0 30.293333 30.293334l70.4-70.4L597.333333 589.226667a21.333333 21.333333 0 0 0 30.293334-30.293334L554.666667 488.96l70.4-70.4a21.333333 21.333333 0 0 0 0.853333-30.293333z" p-id="7738"></path></svg>