<?xml version="1.0" standalone="no"?><!DOCTYPE svg PUBLIC "-//W3C//DTD SVG 1.1//EN" "http://www.w3.org/Graphics/SVG/1.1/DTD/svg11.dtd"><svg t="1526386123157" class="icon" style="" viewBox="0 0 1024 1024" version="1.1" xmlns="http://www.w3.org/2000/svg" p-id="8377" xmlns:xlink="http://www.w3.org/1999/xlink" width="200" height="200"><defs><style type="text/css"></style></defs><path d="M736 136.32h-448A152.32 152.32 0 0 0 136.32 288v448a152.32 152.32 0 0 0 151.68 152.32h448a152.32 152.32 0 0 0 152.32-151.68v-448a152.32 152.32 0 0 0-152.32-152.32z m104.32 600.32a104.32 104.32 0 0 1-103.68 104.32h-448a104.32 104.32 0 0 1-104.32-104.96v-448A104.32 104.32 0 0 1 288 184.32h448a104.32 104.32 0 0 1 104.32 103.68z" fill="#f4ea2a" p-id="8378"></path><path d="M684.8 355.2l-187.52 249.6v-185.6A73.6 73.6 0 0 0 424.32 345.6H320a24.32 24.32 0 0 0 0 48h104.32a25.6 25.6 0 0 1 25.6 25.6V640a35.2 35.2 0 0 0 24.32 33.28 34.56 34.56 0 0 0 10.88 0 35.2 35.2 0 0 0 26.88-8.96L723.2 384a23.68 23.68 0 1 0-38.4-28.8z" fill="#f4ea2a" p-id="8379"></path></svg>